<svg width="218" height="40" viewBox="0 0 218 40" fill="none" xmlns="http://www.w3.org/2000/svg">
<g clip-path="url(#clip0)">
<path d="M120.889 31.7753C119.45 32.9748 117.972 33.8505 116.475 34.3836C114.959 34.9167 113.27 35.2023 111.37 35.2023C109.643 35.2023 108.012 34.8977 106.495 34.3075C104.979 33.7173 103.655 32.8796 102.542 31.8325C101.429 30.7853 100.565 29.5288 99.9127 28.0819C99.2601 26.6349 98.9339 25.1118 98.9339 23.4745C98.9339 21.8563 99.2409 20.3141 99.8551 18.8672C100.469 17.4203 101.314 16.1828 102.369 15.1166C103.425 14.0695 104.691 13.2318 106.15 12.6416C107.609 12.0514 109.163 11.7468 110.833 11.7468C112.503 11.7468 114.038 12.0704 115.439 12.6797C116.84 13.3079 118.068 14.1647 119.085 15.2499C120.102 16.3351 120.909 17.6297 121.484 19.1718C122.06 20.6949 122.348 22.3513 122.348 24.1218V25.8353H106.092C106.553 26.8824 107.263 27.7582 108.242 28.4246C109.221 29.0909 110.372 29.4336 111.696 29.4336C112.637 29.4336 113.5 29.2813 114.287 28.9767C115.055 28.6721 115.727 28.2532 116.264 27.7201L120.889 31.7753ZM110.698 17.4012C109.547 17.4012 108.549 17.7249 107.724 18.3341C106.898 18.9624 106.304 19.8382 105.958 20.9805H115.496C115.132 19.8953 114.518 19.0195 113.673 18.3722C112.81 17.7249 111.831 17.4012 110.698 17.4012Z" fill="#7F5539"/>
<path d="M125.534 19.6097H134.208V25.3784H125.534V19.6097Z" fill="#7F5539"/>
<path d="M137.74 4.81674H152.709C154.226 4.81674 155.646 5.02617 156.932 5.44501C158.217 5.86386 159.331 6.43502 160.252 7.17752C161.173 7.92003 161.883 8.81484 162.401 9.84292C162.919 10.89 163.169 12.0133 163.169 13.2508C163.169 14.4693 162.862 15.6306 162.248 16.6968C161.634 17.763 160.789 18.6768 159.734 19.4193C161.058 20.1237 162.113 21.0566 162.919 22.1989C163.725 23.3413 164.129 24.5978 164.129 25.9686C164.129 28.5959 163.131 30.7092 161.154 32.3465C159.177 33.9648 156.605 34.7834 153.439 34.7834H137.74V4.81674ZM152.23 10.852H145.167V16.7539H152.23C153.285 16.7539 154.149 16.4874 154.801 15.9353C155.454 15.4022 155.78 14.6787 155.78 13.8029C155.78 12.9272 155.454 12.2037 154.801 11.6706C154.149 11.1185 153.285 10.852 152.23 10.852ZM152.882 28.7292C154.034 28.7292 154.936 28.4436 155.627 27.8724C156.298 27.3013 156.644 26.5397 156.644 25.5688C156.644 24.5978 156.298 23.8363 155.627 23.2651C154.955 22.6939 154.034 22.4084 152.882 22.4084H145.167V28.7482H152.882V28.7292Z" fill="#7F5539"/>
<path d="M166.758 23.4745C166.758 21.8562 167.084 20.3141 167.737 18.8672C168.389 17.4203 169.253 16.1828 170.366 15.1166C171.479 14.0695 172.784 13.2318 174.281 12.6225C175.797 12.0133 177.409 11.7087 179.137 11.7087C180.864 11.7087 182.476 12.0133 183.992 12.6225C185.508 13.2318 186.813 14.0695 187.907 15.1166C189.02 16.1637 189.884 17.4203 190.536 18.8672C191.189 20.3141 191.515 21.8372 191.515 23.4745C191.515 25.0928 191.189 26.6349 190.536 28.0819C189.884 29.5288 189.02 30.7663 187.907 31.8324C186.794 32.8796 185.489 33.7173 183.992 34.3075C182.476 34.8976 180.864 35.2023 179.137 35.2023C177.409 35.2023 175.797 34.8976 174.281 34.3075C172.765 33.7173 171.46 32.8796 170.366 31.8324C169.253 30.7853 168.389 29.5288 167.737 28.0819C167.084 26.6349 166.758 25.0928 166.758 23.4745ZM179.137 29.2051C180.691 29.2051 181.996 28.653 183.09 27.5297C184.165 26.4255 184.702 25.0547 184.702 23.4745C184.702 21.8562 184.165 20.4855 183.09 19.3622C182.015 18.258 180.691 17.6868 179.137 17.6868C177.582 17.6868 176.277 18.2389 175.183 19.3622C174.108 20.4664 173.571 21.8372 173.571 23.4745C173.571 25.0738 174.108 26.4255 175.183 27.5297C176.277 28.653 177.582 29.2051 179.137 29.2051Z" fill="#7F5539"/>
<path d="M201.437 34.7644L191.688 12.1275H199.269L204.911 25.9876L210.554 12.1275H217.962L208.212 34.7644H201.437Z" fill="#7F5539"/>
<path d="M15.6605 40C15.5645 40 15.4686 40 15.3726 40C9.42315 39.981 5.5464 39.1623 3.18581 37.4298L3.03227 37.3156L2.89793 37.1823C0.249457 34.6692 -0.633367 31.585 0.441375 28.7101C2.0343 24.4265 7.44639 21.6849 15.2767 21.2089C18.5393 21.0186 21.2453 21.8563 24.6615 22.9034C30.5725 24.7311 39.4775 27.5107 59.5714 27.4346L59.7441 27.3965L59.9552 27.3774C66.9219 26.5588 70.741 25.2261 72.737 24.2551C75.0016 23.1509 75.4622 22.2751 75.539 22.0847C75.4046 21.8943 74.8097 21.4374 73.6774 21.247L73.543 21.228C73.4855 21.2089 66.6916 19.8001 58.3047 21.6659L57.0381 16.0876C66.3461 14.0124 73.8309 15.4403 74.6945 15.6307C78.7248 16.3351 81.3733 18.9624 81.2965 22.199C81.2198 25.3403 78.437 30.8996 60.838 33.0319C60.7037 33.07 60.5502 33.108 60.4158 33.1461V33.1652C60.3966 33.1652 60.3774 33.1652 60.3582 33.1652C54.9078 34.6121 43.4694 37.1252 32.0503 38.6863C25.6019 39.5621 20.0938 40 15.6605 40ZM6.7171 32.9367C7.96457 33.7173 13.012 35.5259 31.2634 33.0128C33.6432 32.6892 36.0422 32.3084 38.3836 31.9086C31.1483 30.8996 26.5231 29.4717 22.9342 28.3484C19.8635 27.3965 17.81 26.7682 15.6221 26.9015C9.73022 27.2632 6.42922 29.1099 5.83428 30.6901C5.5464 31.4898 6.12215 32.3275 6.7171 32.9367Z" fill="#7F5539"/>
<path d="M16.2363 24.9024C16.1211 24.4074 13.4343 12.6987 19.3262 6.26368C22.2433 3.08424 26.5615 1.78962 32.1655 2.41789C39.8998 -0.571164 45.4462 -0.780588 49.5725 1.7325C53.4301 4.07424 55.3684 8.33888 57.4411 12.851C58.7654 15.7639 60.1472 18.791 62.124 21.5897L58.2088 24.3313C55.9634 21.1709 54.428 17.801 53.0654 14.812C51.2422 10.8139 49.6685 7.36791 47.0776 5.78771C45.2927 4.70251 41.9341 3.65539 33.3746 7.06329C32.9908 7.2156 32.5685 7.27272 32.1655 7.2156C27.9049 6.64445 24.7766 7.40599 22.8767 9.46215C19.3837 13.2699 20.2666 21.1137 20.8999 23.8172L16.2363 24.9024Z" fill="#7F5539"/>
<path opacity="0.5" d="M34.219 28.1009C32.9332 28.1009 31.7241 28.0438 30.611 27.9676C23.0494 27.4155 18.0403 25.3213 17.8292 25.2261L20.0938 19.9714C20.1322 19.9905 24.5847 21.8372 31.2635 22.2941C40.1109 22.9034 48.5169 20.9234 56.2129 16.4112L59.13 21.3232C49.9371 26.7111 40.9745 28.1009 34.219 28.1009Z" fill="#7F5539"/>
</g>
<defs>
<clipPath id="clip0">
<rect width="218" height="40" fill="white"/>
</clipPath>
</defs>
</svg>
